<?xml version="1.0" encoding="utf-8"?>
<!-- Generator: Adobe Illustrator 28.0.0, SVG Export Plug-In . SVG Version: 6.00 Build 0)  -->
<!DOCTYPE svg PUBLIC "-//W3C//DTD SVG 1.0//EN" "http://www.w3.org/TR/2001/REC-SVG-20010904/DTD/svg10.dtd" [
	<!ENTITY ns_extend "http://ns.adobe.com/Extensibility/1.0/">
	<!ENTITY ns_ai "http://ns.adobe.com/AdobeIllustrator/10.0/">
	<!ENTITY ns_graphs "http://ns.adobe.com/Graphs/1.0/">
	<!ENTITY ns_vars "http://ns.adobe.com/Variables/1.0/">
	<!ENTITY ns_imrep "http://ns.adobe.com/ImageReplacement/1.0/">
	<!ENTITY ns_sfw "http://ns.adobe.com/SaveForWeb/1.0/">
	<!ENTITY ns_custom "http://ns.adobe.com/GenericCustomNamespace/1.0/">
	<!ENTITY ns_adobe_xpath "http://ns.adobe.com/XPath/1.0/">
]>
<svg version="1.0" id="Слой_1" xmlns:x="&ns_extend;" xmlns:i="&ns_ai;" xmlns:graph="&ns_graphs;"
	 xmlns="http://www.w3.org/2000/svg" xmlns:xlink="http://www.w3.org/1999/xlink" x="0px" y="0px" viewBox="0 0 794.74 116.63"
	 style="enable-background:new 0 0 794.74 116.63;" xml:space="preserve">
<style type="text/css">
	.st0{fill-rule:evenodd;clip-rule:evenodd;fill:#FFFFFF;}
</style>
<metadata>
	<sfw  xmlns="&ns_sfw;">
		<slices></slices>
		<sliceSourceBounds  bottomLeftOrigin="true" height="67.68" width="716.19" x="-56.09" y="-217.92"></sliceSourceBounds>
	</sfw>
</metadata>
<g>
	<g>
		<path class="st0" d="M58.37,56.78v20.69h7.07c0.97,0.1,1.71-0.52,1.71-1.95V58.83c0-1.32-0.43-2.04-1.71-2.04H58.37L58.37,56.78
			 M39.39,84.72v-60.3l42.46-0.09v7.37l-23.48-0.1v18.03h9.55c4.59,0,18.12-0.23,18.12,8.16v18.65c0.09,6.95-10.92,8.08-18,8.19
			L39.39,84.72L39.39,84.72L39.39,84.72L39.39,84.72L39.39,84.72z"/>
		<path class="st0" d="M121.27,32.98L116.11,61h11.14l-5.03-28.02H121.27L121.27,32.98 M93.89,84.72l13.74-60.39h28.19l13.74,60.39
			h-18.44l-2.9-15.18h-13.08l-2.8,15.18H93.89L93.89,84.72L93.89,84.72L93.89,84.72L93.89,84.72z"/>
		<polygon class="st0" points="159.07,24.33 177.74,24.33 177.74,48.62 186.2,48.51 186.2,24.33 204.77,24.33 204.77,84.72 
			186.2,84.72 186.2,57.1 177.74,57.1 177.74,84.63 159.07,84.72 159.07,24.33 159.07,24.33 159.07,24.33 159.07,24.33 		"/>
		<polygon class="st0" points="218.96,24.33 237.18,24.33 237.18,48.8 249.19,24.33 267.1,24.33 253.28,52.67 269.14,84.72 
			251.66,84.72 237.18,57.29 237.18,84.72 218.96,84.72 218.96,24.33 218.96,24.33 218.96,24.33 218.96,24.33 		"/>
		<path class="st0" d="M337.38,32.86l-5.16,28.03h11.27l-5.14-28.03H337.38L337.38,32.86 M310.05,84.72l13.71-60.39h28.21
			l13.73,60.39h-18.45l-2.78-15.29h-13.2l-2.77,15.29H310.05L310.05,84.72L310.05,84.72L310.05,84.72L310.05,84.72z"/>
		<path class="st0" d="M453.84,33.03l-5.15,27.9h11.16l-5.03-27.9H453.84L453.84,33.03 M426.5,84.72l13.73-60.39h28.21l13.73,60.39
			h-18.44l-2.91-15.26h-13.07l-2.8,15.26H426.5L426.5,84.72L426.5,84.72L426.5,84.72L426.5,84.72z"/>
		<path class="st0" d="M613.73,33.03l-5.04,27.96l11.16-0.1l-5.16-27.86H613.73L613.73,33.03 M586.52,84.72l13.7-60.39h28.22
			l13.84,60.39H623.7l-2.88-15.23h-13.1l-2.89,15.23H586.52L586.52,84.72L586.52,84.72L586.52,84.72L586.52,84.72z"/>
		<polygon class="st0" points="510.82,24.33 510.82,48.64 519.3,48.64 519.3,24.43 537.97,24.33 537.97,84.63 519.3,84.72 
			519.3,57.14 510.82,57.14 510.82,84.72 492.15,84.72 492.15,24.43 510.82,24.33 510.82,24.33 510.82,24.33 510.82,24.33 		"/>
		<path class="st0" d="M393.09,57.2v20.27h6.44c1.27,0,2.04-0.73,2.04-1.75V59.46c0-1.34-0.56-2.25-2.14-2.25H393.09L393.09,57.2
			 M374.99,84.63v0.09V24.33h26.9c18.03,0,17.49,6.04,17.49,8.81v12.47c0,1.86-0.46,7.37-10.25,7.06v0.61
			c7.94-0.09,10.57,2.47,10.57,6.27v16.61c0,2.84-1.09,8.36-17.92,8.47H374.99L374.99,84.63 M393.09,31.6v17.3l6.34,0.11
			c1.58,0,2.14-0.62,2.14-1.44v-0.22V33.23c0-0.91-0.43-1.63-2.04-1.63H393.09L393.09,31.6L393.09,31.6L393.09,31.6L393.09,31.6z"/>
		<polygon class="st0" points="553.65,24.33 590.57,24.33 590.57,31.6 571.77,31.6 571.77,84.72 553.65,84.72 553.65,24.54 
			553.65,24.33 553.65,24.33 553.65,24.33 553.65,24.33 		"/>
		<path class="st0" d="M668.48,31.59v24.57h7.82c3.11,0.21,3.11-1.11,3.32-2.55l-0.1-19.75c0.1-2.24-2.21-2.3-3.15-2.27H668.48
			L668.48,31.59 M650.25,84.63v-60.3h28.3c6.02,0,16.54,0,16.54,8.7v20.79c0,8.9-9.86,9.21-16.54,9.32h-10.06v21.58L650.25,84.63
			L650.25,84.63L650.25,84.63L650.25,84.63L650.25,84.63z"/>
		<path class="st0" d="M735.58,31.63h-10.67v39.56c0,3.05-0.64,5.59-3.86,6.61V77.7l14.48-0.06L735.58,31.63L735.58,31.63
			 M696.83,91.99V77.91l1.28-0.12c7.81,0,8.79-4.08,8.79-6.21V24.33l44.17-0.03v53.4h4.51v14.29h-18.01v-7.34h-22.74v7.34H696.83
			L696.83,91.99L696.83,91.99L696.83,91.99L696.83,91.99z"/>
	</g>
</g>
</svg>
