<?xml version="1.0" encoding="utf-8"?>
<!-- Generator: Adobe Illustrator 28.0.0, SVG Export Plug-In . SVG Version: 6.00 Build 0)  -->
<!DOCTYPE svg PUBLIC "-//W3C//DTD SVG 1.0//EN" "http://www.w3.org/TR/2001/REC-SVG-20010904/DTD/svg10.dtd" [
	<!ENTITY ns_extend "http://ns.adobe.com/Extensibility/1.0/">
	<!ENTITY ns_ai "http://ns.adobe.com/AdobeIllustrator/10.0/">
	<!ENTITY ns_graphs "http://ns.adobe.com/Graphs/1.0/">
	<!ENTITY ns_vars "http://ns.adobe.com/Variables/1.0/">
	<!ENTITY ns_imrep "http://ns.adobe.com/ImageReplacement/1.0/">
	<!ENTITY ns_sfw "http://ns.adobe.com/SaveForWeb/1.0/">
	<!ENTITY ns_custom "http://ns.adobe.com/GenericCustomNamespace/1.0/">
	<!ENTITY ns_adobe_xpath "http://ns.adobe.com/XPath/1.0/">
]>
<svg version="1.0" id="Слой_1" xmlns:x="&ns_extend;" xmlns:i="&ns_ai;" xmlns:graph="&ns_graphs;"
	 xmlns="http://www.w3.org/2000/svg" xmlns:xlink="http://www.w3.org/1999/xlink" x="0px" y="0px" viewBox="0 0 111.85 56.5"
	 style="enable-background:new 0 0 111.85 56.5;" xml:space="preserve">
<style type="text/css">
	.st0{opacity:0.22;fill:#48AC4D;}
	.st1{opacity:0.14;fill:#48AC4D;}
</style>
<metadata>
	<sfw  xmlns="&ns_sfw;">
		<slices></slices>
		<sliceSourceBounds  bottomLeftOrigin="true" height="172.5" width="479.15" x="114.55" y="191.48"></sliceSourceBounds>
	</sfw>
</metadata>
<path class="st0" d="M277.58,26.26c-2.09-0.61-2.67-1.5-2.4-3.41c0.07-0.47,0.02-0.95,0-1.43c-0.36-9.34-10.73-15.22-18.99-10.86
	c-1.79,0.94-3.04,2.49-4.7,3.58c-4.13-8.9-9.09-12.55-16.25-12.05c-7.17,0.5-11.52,5.04-14.45,15.06c-0.64-0.02-0.92-0.57-1.32-0.92
	c-6.38-5.77-14.62-4.72-19.08,2.63c-1.12,1.85-2.29,2.33-4.33,2.37c-8.98,0.17-16.08,6.53-16.56,14.58c0,0.37-0.01,0.73-0.01,1.1
	c0.02,0.31,0.04,0.62,0.06,0.94c-0.09,1.2-0.02,2.37,0.45,3.51c2.6,6.27,7.29,9.83,13.98,10.7c5.18,0.67,10.16-0.29,14.06-3.77
	c1.98-1.77,2.53-1.31,3.7,0.39c2.55,3.68,6.51,5.11,10.62,5.63c6.32,0.8,11.77-1.18,15.66-6.51c0.78-1.07,1.57-1.44,2.99-1.2
	c3.84,0.64,7.61,0.23,11.1-1.65c1.13-0.61,1.93-0.43,2.68,0.52c1.81,2.3,4.41,3.2,7.1,3.46c4.56,0.43,10.78-1.49,11.71-7.33
	c0.21-1.29,1.01-1.35,1.98-1.57c2.57-0.57,5.13-1.23,6.6-3.76C284.67,32.01,282.9,27.81,277.58,26.26z"/>
<path class="st0" d="M105.7,26.1c-2.25-0.66-2.88-1.61-2.59-3.67c0.07-0.5,0.02-1.03,0-1.54c-0.38-10.07-11.56-16.4-20.46-11.71
	c-1.93,1.02-3.28,2.68-5.07,3.85C73.13,3.45,67.79-0.49,60.07,0.05C52.35,0.59,47.65,5.48,44.5,16.28c-0.69-0.02-0.99-0.61-1.42-1
	c-6.88-6.21-15.75-5.09-20.56,2.83c-1.21,1.99-2.47,2.51-4.67,2.55C8.18,20.85,0.52,27.7,0.01,36.38c0,0.39-0.01,0.79-0.01,1.18
	c0.02,0.34,0.04,0.67,0.06,1.01c-0.1,1.29-0.03,2.55,0.48,3.78c2.8,6.76,7.85,10.59,15.06,11.53c5.59,0.73,10.95-0.31,15.15-4.06
	c2.13-1.91,2.72-1.41,3.99,0.43c2.74,3.97,7.01,5.51,11.44,6.07c6.81,0.87,12.68-1.27,16.88-7.01c0.84-1.15,1.69-1.55,3.23-1.3
	c4.13,0.69,8.2,0.25,11.96-1.78c1.21-0.66,2.07-0.47,2.89,0.56c1.95,2.47,4.75,3.45,7.66,3.72c4.92,0.46,11.62-1.61,12.62-7.9
	c0.22-1.39,1.09-1.46,2.14-1.69c2.77-0.61,5.53-1.32,7.12-4.05C113.34,32.3,111.43,27.78,105.7,26.1z"/>
<path class="st0" d="M-90.16,42.85c-3.04-3.19-6.72-4.94-11.22-4.01c-1.25,0.26-1.67-0.54-2.22-1.16c-4.22-4.82-9.47-5.63-15.32-3.9
	c-1.09,0.32-1.44,0.13-1.7-0.91c-1.54-6.15-6.12-9.02-11.76-10.63c-7.97-2.27-19.88,0.01-23.75,8.32c-0.47,1.02-1.23,0.81-2.07,0.69
	c-6.79-0.95-11.17,1.07-14.46,6.8c-0.72,1.25-1.39,1.53-2.81,1.3c-5.06-0.81-9.77,0.17-14.09,3.04c-6.08,4.03-8.04,11.84-4.64,16.62
	c0.28,0.47,0.49,0.99,0.84,1.39c3.24,3.65,7.4,5.26,12.2,5.13c2.16-0.06,3.6,0.32,4.28,2.7c0.59,2.08,2.36,3.41,4.12,4.61
	c5.32,3.65,11.15,3.53,17.12,2.29c1.09-0.23,2.03-0.42,3.14,0.18c9.24,5.01,17.88,3.69,25.94-2.71c0.79-0.63,1.33-1.05,2.35-0.36
	c6.12,4.16,16.12,1.64,19.07-6.83c0.42-1.22,1.01-1.37,2.27-1.02c5.78,1.59,11.14-0.69,14.27-5.89
	C-85.85,54.02-86.51,46.68-90.16,42.85z"/>
<path class="st0" d="M59.87,130.45c-1.17-6.63-7.11-11.34-14.47-11.48c-1.88-0.04-2.88-0.38-3.59-2.42
	c-2.25-6.47-7.8-9.58-14.51-8.4c-1.11,0.2-1.59-0.06-2.15-0.98c-5.22-8.57-16.39-9.61-22.98-2.11c-0.97,1.11-1.74,1.17-2.91,0.68
	c-2.13-0.9-4.37-1.34-6.67-1.09c-9.61,1.01-15.34,7.12-15.71,16.82c-0.05,1.35-0.56,1.84-1.77,2.14c-2.29,0.57-4.46,1.5-6.47,2.76
	c-5.34,3.37-7.41,9.36-5.01,14.53c0.13,0.17,0.26,0.33,0.38,0.5c0,0-0.04,0.07-0.04,0.07c0.12,0.26,0.25,0.52,0.37,0.78
	c0.22,0.31,0.44,0.62,0.65,0.93c0.56,1.51,1.74,2.47,3.01,3.29c6.57,4.29,13.52,5.03,20.82,2.1c1.17-0.47,2.03-0.91,3.12,0.44
	c5.74,7.09,15.86,8.09,22.93,2.33c1.17-0.96,2.19-1.22,3.7-0.81c6.7,1.82,12.42,0.06,17-5.16c0.89-1.01,1.65-1.22,2.93-0.75
	c4.56,1.69,9.1,1.37,13.49-0.61c1.7-0.77,3.43-1.63,4.24-3.53C58.8,137.62,60.57,134.41,59.87,130.45z"/>
<path class="st0" d="M240.97,111.51c-2.6-1.13-3.29-2.59-3.63-5.37c-0.76-6.25-3.87-11.49-9.4-14.8
	c-8.74-5.22-19.07-3.36-25.82,4.44c-0.88,1.02-1.72,2.51-3.16,1.74c-1.51-0.8-2.99-0.5-4.48-0.67c-8.48-0.97-15.54,2.71-17.98,11.14
	c-1.06,3.65-2.68,4.87-6.12,5.89c-5.24,1.56-9.74,4.65-11.5,10.41c-2.05,4.05-0.99,9.42,2.64,13.41c6.97,7.66,20.99,8.99,29.5,2.58
	c1.91-1.43,2.68-1.62,4.38,0.38c7.15,8.43,24.28,7.45,29.25-1.87c0.96-1.79,2.07-2.3,3.92-1.84c0.96,0.24,1.97,0.33,2.96,0.4
	c8.09,0.59,16.03-3.65,17.84-11.11C250.1,118.53,248,114.57,240.97,111.51z"/>
<path class="st1" d="M-110.82,142.29c-2.16-2.67-5.02-3.75-8.36-3.67c-2.14,0.05-3.98-0.09-5.48-2.14
	c-1.56-2.13-4.06-3.27-6.59-3.95c-1.7-0.45-2.64-1.3-3.38-2.91c-0.94-2.05-2.33-3.86-4.18-5.28c-11.7-8.98-27.5-1.43-28.35,10.03
	c-0.06,0.86-0.38,1.55-1.55,1.54c-3.85-0.02-7.31,1.35-10.81,2.86c-7.39,3.18-11.07,11.67-8.01,18.98c0.22,0.53,0.38,1.1,0.65,1.6
	c4.93,8.95,17.35,11,25.54,8.61c1.31-0.38,2.32-0.69,3.38,0.48c4.14,4.59,9.48,4.49,14.91,3.56c3.3-0.57,5.82-2.58,7.46-5.47
	c0.81-1.44,1.39-1.5,2.91-0.84c4.69,2.05,11.42,0.2,12.06-5.45c-0.05-1.97,0.36-3.39,2.87-3.24c1.03,0.06,2.13-0.45,3.15-0.83
	C-108.64,153.9-106.83,147.22-110.82,142.29z"/>
</svg>
